<?xml version="1.0" encoding="utf-8"?>
<!-- Generator: Adobe Illustrator 25.0.1, SVG Export Plug-In . SVG Version: 6.00 Build 0)  -->
<svg version="1.1" id="Layer_1" xmlns="http://www.w3.org/2000/svg" xmlns:xlink="http://www.w3.org/1999/xlink" x="0px" y="0px"
	 viewBox="0 0 88 88" style="enable-background:new 0 0 88 88;" xml:space="preserve">
<style type="text/css">
	.st0{fill:#FFFFFF;}
	.st1{fill:#FAC312;}
</style>
<g>
	<g>
		<polygon class="st0" points="38.5,53.3 23.3,41 19.9,46.5 34.4,58.7 		"/>
		<polygon class="st0" points="48,30.4 24.5,38.6 40.4,51.7 64.6,42.2 		"/>
		<polygon class="st0" points="45.7,60.1 68.1,51.2 65.1,44.6 42,53.8 		"/>
		<path class="st0" d="M45.1,62.9c-0.4,0-0.9-0.3-1.1-0.6l-2.6-4.6v18.8l24.4-10.2V54.8l-20.2,8C45.5,62.8,45.3,62.9,45.1,62.9z"/>
		<path class="st0" d="M34.8,61.8c-0.1,0-0.1,0-0.2,0c-0.3,0-0.5-0.1-0.8-0.3l-10.7-9.1V62L39,76V56.8l-3.3,4.4
			C35.4,61.5,35.1,61.7,34.8,61.8z"/>
		<polygon class="st1" points="35.7,29.2 52.1,29.2 52.1,24.4 62.1,24.4 44,11.4 26,24.4 35.7,24.4 		"/>
	</g>
</g>
</svg>
