<svg xmlns="http://www.w3.org/2000/svg" xmlns:xlink="http://www.w3.org/1999/xlink" version="1.1" id="Capa_1" x="0px" y="0px" width="64px" height="64px" viewBox="0 0 415.759 415.758" style="enable-background:new 0 0 415.759 415.758;" xml:space="preserve" class="svg-white replaced-svg">
<g>
<g>
<path d="M250.962,243.028h-4.321l-13.227-75.271c-1.534-8.73-8.754-15.56-17.572-16.597c-26.642-3.118-53.636-4.704-80.236-4.704    c-26.612,0-53.607,1.586-80.249,4.704c-8.949,1.052-16.007,7.726-17.568,16.597c-3.342,18.993-6.68,37.984-10.014,56.979    l-3.215,18.293h-4.32c-11.162,0-20.24,9.08-20.24,20.236v70.684c0,10.442,7.945,19.059,18.106,20.133v33.799h54.645v-33.688    h125.701v33.688h54.642v-33.799c10.161-1.074,18.105-9.689,18.105-20.133v-70.684C271.198,252.11,262.125,243.028,250.962,243.028    z M49.023,310.924c-8.492,0-15.401-6.911-15.401-15.406c0-8.486,6.909-15.396,15.401-15.396c8.497,0,15.406,6.909,15.406,15.396    C64.429,304.013,57.52,310.924,49.023,310.924z M176.382,305.213c0,1.334-0.496,2.529-1.434,3.471    c-0.938,0.935-2.141,1.435-3.471,1.435H99.725c-2.708,0-4.908-2.196-4.908-4.908v-19.869c0-2.702,2.2-4.905,4.908-4.905h71.75    c2.705,0,4.906,2.203,4.906,4.905L176.382,305.213L176.382,305.213z M62.674,235.485l1.019-5.791l7.199-41.017    c0.69-3.901,3.683-6.729,7.622-7.188c18.947-2.225,38.146-3.348,57.092-3.348c18.937,0,38.145,1.125,57.083,3.35    c3.938,0.457,6.933,3.289,7.619,7.194l8.219,46.799H62.674z M222.179,310.924c-8.497,0-15.406-6.911-15.406-15.406    c0-8.486,6.909-15.396,15.406-15.396c8.493,0,15.402,6.909,15.402,15.396C237.581,304.013,230.672,310.924,222.179,310.924z" fill="#ffffff"></path>
<path d="M415.759,120.079h-3.772V69.197l-23.985-24.096l-2.455,18.996l8.608,8.716v47.265h-3.773v52h5.758v78.162    c0,9.09-7.395,16.482-16.483,16.482s-16.482-7.394-16.482-16.482v-78.816h-24.284v-7.171h12.286l23.273-136.374h-223.31    l16.219,95.045c11.874,0.535,23.77,1.382,35.633,2.507l-10.726-62.85h141.06l-11.43,66.972h-93.004    c14.541,5.432,25.651,18.313,28.411,34.005l10.267,58.432c16.332,6.594,27.884,22.609,27.884,41.275v70.682    c0,1.475-0.089,2.929-0.229,4.365h68.518V293.58h-24.852V185.305h10.401v64.938c0,16.742,13.622,30.363,30.363,30.363    s30.364-13.621,30.364-30.363V172.08h5.74L415.759,120.079L415.759,120.079z" fill="#fac312"></path>
</g>
</g>
<g>
</g>
<g>
</g>
<g>
</g>
<g>
</g>
<g>
</g>
<g>
</g>
<g>
</g>
<g>
</g>
<g>
</g>
<g>
</g>
<g>
</g>
<g>
</g>
<g>
</g>
<g>
</g>
<g>
</g>
</svg>