<svg xmlns="http://www.w3.org/2000/svg" xmlns:xlink="http://www.w3.org/1999/xlink" version="1.1" id="Capa_1" x="0px" y="0px" width="58px" height="58px" viewBox="0 0 420 420" style="enable-background:new 0 0 420 420;" xml:space="preserve" class="svg-white replaced-svg">
<g>
<g>
<g>
<path d="M314.606,357.373C314.605,357.373,314.605,357.373,314.606,357.373c-8.693,0-17.603-1.004-26.636-2.98H46.729V65.608     h261.426v129.624c6.477-3.025,12.809-5.099,18.956-6.181c0.825-0.146,1.649-0.272,2.472-0.382V32.139     C329.582,14.418,315.164,0,297.441,0h-240c-17.722,0-32.14,14.418-32.14,32.139v355.722c0,17.722,14.418,32.139,32.14,32.139h240     c17.723,0,32.141-14.417,32.141-32.139v-31.519c-2.211,0.305-4.438,0.558-6.681,0.725     C320.171,357.27,317.38,357.373,314.606,357.373z M177.441,396.944c-7.544,0-13.659-6.115-13.659-13.659     c0-7.543,6.115-13.659,13.659-13.659s13.659,6.116,13.659,13.659C191.101,390.829,184.985,396.944,177.441,396.944z" fill="#ffffff"></path>
<path d="M393.479,269.643c-4.186-22.562-18.546-43.424-26.732-53.854c-11.107-14.149-25.206-19.83-41.9-16.89     c-11.922,2.1-24.878,8.59-38.51,19.293c-9.634,7.563-16.907,15.135-20.124,18.657c-8.085-6.964-30.66-30.226-41.743-43.343     c-5.566-6.587-19.921-20.595-30.631-10.925c-11.529,11.206,5.359,29.516,5.798,30.045l67.749,82.93     c-0.273,0.369-0.58,0.688-0.933,0.961c-6.497,5.104-25.458-4.272-33.11-9.334c-6.997-4.625-18.777-4.588-24.723,0.078     c-2.381,1.87-3.698,4.411-3.714,7.155c-0.02,3.951,2.566,8.036,7.674,12.129c0.056,0.046,0.158,0.138,0.307,0.263     c7.55,6.47,28.028,22.58,55.071,32.496c17.335,6.358,34.224,8.979,50.201,7.791c19.817-1.478,38.287-8.832,54.888-21.864     C390.855,311.247,397.729,292.543,393.479,269.643z" fill="#fac312"></path>
<path d="M225.338,127.975c3.351,4.39,9.626,5.232,14.017,1.881c4.392-3.351,5.232-9.626,1.881-14.016     c-25.26-33.092-72.731-39.463-105.823-14.203c-33.091,25.26-39.463,72.733-14.203,105.824c3.351,4.391,9.625,5.232,14.016,1.881     c4.391-3.351,5.233-9.626,1.882-14.017c-18.569-24.326-13.885-59.222,10.44-77.791     C171.873,98.966,206.77,103.649,225.338,127.975z" fill="#fac312"></path>
<path d="M181.218,161.646c4.389-3.35,10.685-2.504,14.035,1.883c3.351,4.39,9.626,5.232,14.016,1.881     c4.391-3.351,5.232-9.626,1.88-14.016c-10.041-13.154-28.913-15.688-42.066-5.646c-13.154,10.041-15.687,28.912-5.646,42.067     c3.351,4.39,9.626,5.232,14.017,1.881c4.391-3.351,5.232-9.627,1.881-14.017C175.985,171.292,176.83,164.996,181.218,161.646z" fill="#fac312"></path>
</g>
</g>
</g>
<g>
</g>
<g>
</g>
<g>
</g>
<g>
</g>
<g>
</g>
<g>
</g>
<g>
</g>
<g>
</g>
<g>
</g>
<g>
</g>
<g>
</g>
<g>
</g>
<g>
</g>
<g>
</g>
<g>
</g>
</svg>